<svg aria-hidden="true" style="position: absolute; width: 0; height: 0; overflow: hidden;" version="1.1" xmlns="http://www.w3.org/2000/svg" xmlns:xlink="http://www.w3.org/1999/xlink">
<defs>
<symbol id="icon-facebook-1" viewBox="0 0 32 32">
<path d="M0 0h32v32h-32z"></path>
</symbol>
<symbol id="icon-twitter-1" viewBox="0 0 32 32">
<path d="M0 0h32v32h-32z"></path>
</symbol>
<symbol id="icon-instagram-1" viewBox="0 0 32 32">
<path d="M0 0h32v32h-32z"></path>
</symbol>
<symbol id="icon-linkedin-1" viewBox="0 0 32 32">
<path d="M0 0h32v32h-32z"></path>
</symbol>
<symbol id="icon-paypal" viewBox="0 0 28 32">
<path fill="#03a9f4" style="fill: var(--color1, #03a9f4)" d="M24.247 7.36c-0.096-0.058-0.213-0.092-0.337-0.092-0.342 0-0.624 0.258-0.662 0.59l-0 0.003c-0.025 0.218-0.061 0.436-0.108 0.666-1.306 5.924-3.927 8.806-8.016 8.806h-6c-0.321 0.001-0.588 0.228-0.651 0.529l-0.001 0.004-2 9.375-0.358 2.385c-0.022 0.112-0.035 0.241-0.035 0.372 0 1.102 0.891 1.995 1.991 2h4.014c0.002 0 0.004 0 0.006 0 0.932 0 1.714-0.64 1.931-1.505l0.003-0.014 1.62-6.481h3.479c4.105 0 6.943-3.273 7.988-9.217 0.126-0.496 0.199-1.066 0.199-1.653 0-2.391-1.205-4.501-3.040-5.756l-0.024-0.015z"></path>
<path fill="#283593" style="fill: var(--color2, #283593)" d="M22.989 2.377c-1.278-1.445-3.131-2.357-5.197-2.377l-0.003-0h-11.040c-0.005-0-0.011-0-0.018-0-1.662 0-3.038 1.222-3.279 2.817l-0.002 0.018-3.428 22.867c-0.014 0.090-0.022 0.193-0.022 0.298 0 1.105 0.895 2 2 2 0.001 0 0.002 0 0.004 0h5.12c0.321-0.001 0.588-0.228 0.651-0.529l0.001-0.004 1.887-8.8h5.466c4.745 0 7.879-3.316 9.319-9.866 0.058-0.262 0.102-0.525 0.132-0.791 0.059-0.338 0.092-0.726 0.092-1.123 0-1.729-0.637-3.308-1.689-4.517l0.007 0.008z"></path>
</symbol>
<symbol id="icon-mastercard" viewBox="0 0 53 32">
<path fill="#ffb600" style="fill: var(--color3, #ffb600)" d="M52.759 16.527c0 8.514-6.877 15.473-15.471 15.473-8.514 0-15.473-6.959-15.473-15.473s6.875-15.473 15.389-15.473c8.678 0 15.555 6.959 15.555 15.473z"></path>
<path fill="#f7981d" style="fill: var(--color4, #f7981d)" d="M37.288 1.054c8.514 0 15.471 6.959 15.471 15.473s-6.877 15.473-15.471 15.473c-8.514 0-15.473-6.959-15.473-15.473z"></path>
<path fill="#ff8500" style="fill: var(--color5, #ff8500)" d="M37.288 1.054c8.514 0 15.471 6.959 15.471 15.473s-6.877 15.473-15.471 15.473z"></path>
<path fill="#ff5050" style="fill: var(--color6, #ff5050)" d="M16.494 1.054c-8.433 0.082-15.31 6.961-15.31 15.473s6.877 15.473 15.473 15.473c4.012 0 7.614-1.554 10.397-4.011 0.573-0.492 1.065-1.065 1.554-1.638h-3.191c-0.375-0.454-0.752-0.96-1.103-1.486l-0.043-0.069h5.486c0.326-0.492 0.654-1.065 0.899-1.638h-7.285c-0.242-0.462-0.464-1.004-0.637-1.569l-0.018-0.069h8.514c0.491-1.554 0.818-3.192 0.818-4.911 0-1.146-0.163-2.21-0.328-3.275h-9.496c0.082-0.573 0.247-1.064 0.411-1.637h8.512c-0.191-0.634-0.414-1.177-0.681-1.693l0.026 0.054h-7.203c0.245-0.573 0.573-1.064 0.899-1.637h5.486c-0.353-0.624-0.76-1.162-1.228-1.639l0.001 0.001h-3.029c0.483-0.563 0.991-1.072 1.535-1.539l0.019-0.016c-2.7-2.54-6.385-4.012-10.395-4.012 0-0.165 0-0.165-0.082-0.165z"></path>
<path fill="#e52836" style="fill: var(--color7, #e52836)" d="M1.184 16.527c0 8.514 6.877 15.473 15.473 15.473 4.012 0 7.614-1.554 10.397-4.011 0.573-0.492 1.065-1.065 1.554-1.638h-3.191c-0.375-0.454-0.752-0.961-1.103-1.486l-0.043-0.069h5.486c0.326-0.492 0.654-1.067 0.899-1.638h-7.285c-0.242-0.462-0.464-1.004-0.637-1.569l-0.018-0.069h8.514c0.491-1.554 0.818-3.192 0.818-4.911 0-1.146-0.163-2.21-0.328-3.275h-9.496c0.082-0.573 0.247-1.064 0.411-1.638h8.512c-0.191-0.633-0.414-1.175-0.681-1.691l0.026 0.054h-7.203c0.245-0.573 0.573-1.064 0.899-1.637h5.486c-0.353-0.624-0.76-1.162-1.228-1.639l0.001 0.001h-3.029c0.483-0.563 0.991-1.072 1.535-1.539l0.019-0.016c-2.7-2.54-6.385-4.012-10.395-4.012h-0.082z"></path>
<path fill="#cb2026" style="fill: var(--color8, #cb2026)" d="M16.658 32c4.011 0 7.613-1.554 10.397-4.011 0.573-0.492 1.064-1.065 1.554-1.638h-3.192c-0.375-0.454-0.752-0.961-1.103-1.486l-0.043-0.069h5.486c0.326-0.492 0.655-1.067 0.899-1.638h-7.285c-0.242-0.462-0.464-1.004-0.637-1.569l-0.018-0.069h8.515c0.491-1.554 0.818-3.192 0.818-4.911 0-1.146-0.165-2.21-0.328-3.275h-9.496c0.082-0.573 0.245-1.064 0.408-1.638h8.515c-0.191-0.633-0.414-1.175-0.681-1.691l0.026 0.054h-7.205c0.247-0.573 0.573-1.064 0.901-1.637h5.486c-0.354-0.624-0.761-1.162-1.229-1.639l0.001 0.001h-3.029c0.483-0.563 0.991-1.072 1.535-1.539l0.019-0.016c-2.699-2.54-6.385-4.012-10.394-4.012h-0.082z"></path>
<path fill="#fff" style="fill: var(--color9, #fff)" d="M22.141 20.456l0.244-1.391c-0.081 0-0.244 0.081-0.408 0.081-0.573 0-0.655-0.326-0.573-0.491l0.491-2.865h0.901l0.247-1.556h-0.82l0.165-0.983h-1.638s-0.981 5.403-0.981 6.059c0 0.983 0.573 1.391 1.31 1.391 0.491 0 0.899-0.163 1.064-0.245zM22.72 17.836c0 2.292 1.554 2.865 2.865 2.865 1.227 0 1.719-0.245 1.719-0.245l0.328-1.554s-0.901 0.408-1.72 0.408c-1.801 0-1.474-1.31-1.474-1.31h3.357s0.245-1.064 0.245-1.474c0-1.064-0.573-2.374-2.374-2.374-1.719-0.163-2.947 1.638-2.947 3.685zM25.585 15.462c0.899 0 0.736 1.064 0.736 1.146h-1.801c0-0.082 0.165-1.146 1.064-1.146zM35.989 20.456l0.328-1.801s-0.818 0.41-1.391 0.41c-1.147 0-1.638-0.901-1.638-1.883 0-1.966 0.983-3.029 2.129-3.029 0.818 0 1.474 0.492 1.474 0.492l0.245-1.719s-0.983-0.411-1.883-0.411c-1.882 0-3.764 1.638-3.764 4.75 0 2.046 0.981 3.438 2.946 3.438 0.655 0 1.554-0.244 1.554-0.244zM13.14 13.989c-1.147 0-1.966 0.328-1.966 0.328l-0.245 1.391s0.738-0.328 1.801-0.328c0.573 0 1.064 0.082 1.064 0.573 0 0.328-0.081 0.41-0.081 0.41h-0.738c-1.391 0-2.947 0.573-2.947 2.455 0 1.474 0.983 1.801 1.554 1.801 1.147 0 1.638-0.736 1.72-0.736l-0.082 0.655h1.474l0.655-4.503c0-1.966-1.637-2.046-2.21-2.046zM13.466 17.672c0 0.245-0.163 1.556-1.146 1.556-0.491 0-0.655-0.41-0.655-0.655 0-0.408 0.247-0.983 1.475-0.983 0.095 0.039 0.205 0.068 0.32 0.082l0.006 0.001zM16.905 20.619c0.41 0 2.456 0.082 2.456-2.129 0-2.046-1.966-1.637-1.966-2.455 0-0.41 0.328-0.573 0.901-0.573 0.247 0 1.146 0.081 1.146 0.081l0.247-1.474s-0.573-0.163-1.556-0.163c-1.228 0-2.456 0.491-2.456 2.129 0 1.883 2.046 1.719 2.046 2.455 0 0.492-0.573 0.574-0.981 0.574-0.738 0-1.474-0.247-1.474-0.247l-0.247 1.474c0.082 0.165 0.492 0.328 1.883 0.328zM49.576 12.678l-0.328 2.21s-0.655-0.817-1.554-0.817c-1.475 0-2.784 1.801-2.784 3.928 0 1.31 0.655 2.702 2.046 2.702 0.981 0 1.554-0.655 1.554-0.655l-0.081 0.574h1.637l1.228-7.86-1.719-0.082zM48.838 17.018c0 0.899-0.408 2.046-1.31 2.046-0.571 0-0.899-0.492-0.899-1.31 0-1.31 0.573-2.129 1.31-2.129 0.571 0 0.899 0.41 0.899 1.393zM4.221 20.538l0.981-5.894 0.165 5.894h1.146l2.129-5.894-0.901 5.894h1.719l1.31-7.86h-2.702l-1.638 4.83-0.081-4.83h-2.374l-1.31 7.86h1.554zM29.598 20.538c0.492-2.702 0.573-4.913 1.719-4.503 0.165-1.065 0.41-1.474 0.573-1.883h-0.328c-0.736 0-1.31 0.983-1.31 0.983l0.165-0.901h-1.554l-1.065 6.385h1.801v-0.081zM39.753 13.989c-1.146 0-1.966 0.328-1.966 0.328l-0.244 1.391s0.736-0.328 1.8-0.328c0.573 0 1.065 0.082 1.065 0.573 0 0.328-0.082 0.41-0.082 0.41h-0.736c-1.393 0-2.949 0.573-2.949 2.455 0 1.474 0.983 1.801 1.556 1.801 1.146 0 1.638-0.736 1.719-0.736l-0.081 0.655h1.474l0.655-4.503c0.081-1.966-1.638-2.046-2.211-2.046zM40.162 17.672c0 0.245-0.163 1.556-1.146 1.556-0.491 0-0.655-0.41-0.655-0.655 0-0.408 0.247-0.983 1.475-0.983 0.244 0.082 0.244 0.082 0.328 0.082zM43.349 20.538c0.491-2.702 0.573-4.913 1.719-4.503 0.163-1.065 0.408-1.474 0.573-1.883h-0.328c-0.738 0-1.31 0.983-1.31 0.983l0.165-0.901h-1.556l-1.064 6.385h1.801v-0.081z"></path>
<path fill="#dce5e5" style="fill: var(--color10, #dce5e5)" d="M19.605 19.31c0 0.983 0.573 1.391 1.31 1.391 0.573 0 1.064-0.163 1.228-0.245l0.244-1.391c-0.081 0-0.244 0.081-0.408 0.081-0.573 0-0.655-0.326-0.573-0.491l0.491-2.865h0.901l0.247-1.556h-0.82l0.165-0.983zM23.534 17.836c0 2.292 0.738 2.865 2.046 2.865 1.228 0 1.72-0.245 1.72-0.245l0.328-1.554s-0.901 0.408-1.72 0.408c-1.801 0-1.474-1.31-1.474-1.31h3.357s0.245-1.064 0.245-1.474c0-1.064-0.573-2.374-2.374-2.374-1.719-0.163-2.129 1.638-2.129 3.685zM25.58 15.462c0.901 0 1.065 1.064 1.065 1.146h-2.129c0-0.082 0.165-1.146 1.064-1.146zM35.986 20.456l0.328-1.801s-0.818 0.41-1.393 0.41c-1.146 0-1.637-0.901-1.637-1.883 0-1.966 0.983-3.029 2.129-3.029 0.818 0 1.474 0.492 1.474 0.492l0.245-1.719s-0.983-0.411-1.883-0.411c-1.882 0-2.947 1.638-2.947 4.75 0 2.046 0.165 3.438 2.129 3.438 0.655 0 1.554-0.244 1.554-0.244zM10.929 15.79s0.738-0.328 1.801-0.328c0.573 0 1.064 0.081 1.064 0.573 0 0.328-0.081 0.408-0.081 0.408h-0.738c-1.391 0-2.947 0.574-2.947 2.456 0 1.474 0.983 1.801 1.554 1.801 1.147 0 1.638-0.738 1.72-0.738l-0.082 0.655h1.474l0.655-4.503c0-1.882-1.637-1.964-2.292-1.964l-2.129 1.638zM14.286 17.672c0 0.245-0.983 1.556-1.966 1.556-0.491 0-0.655-0.41-0.655-0.655 0-0.408 0.247-0.983 1.475-0.983 0.244 0.082 1.146 0.082 1.146 0.082zM15.106 20.456s0.491 0.163 1.883 0.163c0.408 0 2.456 0.082 2.456-2.129 0-2.046-1.966-1.637-1.966-2.455 0-0.41 0.328-0.573 0.901-0.573 0.245 0 1.146 0.081 1.146 0.081l0.245-1.474s-0.573-0.163-1.554-0.163c-1.228 0-1.638 0.491-1.638 2.129 0 1.883 1.228 1.719 1.228 2.455 0 0.492-0.573 0.574-0.983 0.574zM49.243 14.888s-0.655-0.817-1.554-0.817c-1.474 0-1.966 1.8-1.966 3.928 0 1.31-0.163 2.702 1.228 2.702 0.983 0 1.556-0.655 1.556-0.655l-0.082 0.574h1.638l1.228-7.86-2.046 2.129zM49.163 17.018c0 0.899-0.738 2.046-1.638 2.046-0.573 0-0.899-0.492-0.899-1.31 0-1.31 0.571-2.129 1.309-2.129 0.573 0 1.228 0.41 1.228 1.393zM4.221 20.538l0.981-5.894 0.165 5.894h1.146l2.129-5.894-0.901 5.894h1.719l1.31-7.86h-2.046l-2.293 4.83-0.081-4.83h-0.901l-2.784 7.86h1.554zM27.878 20.538h1.719c0.492-2.702 0.573-4.913 1.719-4.503 0.165-1.065 0.41-1.474 0.573-1.883h-0.328c-0.736 0-1.31 0.983-1.31 0.983l0.165-0.901zM37.542 15.79s0.738-0.328 1.801-0.328c0.573 0 1.065 0.081 1.065 0.573 0 0.328-0.082 0.408-0.082 0.408h-0.736c-1.393 0-2.949 0.574-2.949 2.456 0 1.474 0.983 1.801 1.556 1.801 1.146 0 1.638-0.738 1.719-0.738l-0.081 0.655h1.474l0.655-4.503c0-1.882-1.638-1.964-2.293-1.964l-2.129 1.638zM40.899 17.672c0 0.245-0.983 1.556-1.966 1.556-0.491 0-0.655-0.41-0.655-0.655 0-0.408 0.247-0.983 1.475-0.983 0.328 0.082 1.146 0.082 1.146 0.082zM41.635 20.538h1.719c0.492-2.702 0.574-4.913 1.72-4.503 0.163-1.065 0.408-1.474 0.573-1.883h-0.328c-0.738 0-1.31 0.983-1.31 0.983l0.165-0.901z"></path>
</symbol>
<symbol id="icon-visa" viewBox="0 0 98 32">
<path fill="#2394bc" style="fill: var(--color11, #2394bc)" d="M39.984 0.768l-4.756 29.598h7.602l4.754-29.598h-7.6zM62.916 12.824c-2.658-1.312-4.286-2.196-4.286-3.54 0.032-1.22 1.376-2.468 4.38-2.468 0.112-0.003 0.245-0.005 0.377-0.005 1.911 0 3.728 0.405 5.369 1.135l-0.084-0.033 0.69 0.308 1.034-6.192c-2-0.773-4.314-1.22-6.733-1.22-0.032 0-0.064 0-0.096 0l0.005-0c-7.506 0-12.794 3.902-12.826 9.484-0.062 4.12 3.784 6.406 6.664 7.778 2.94 1.406 3.94 2.32 3.94 3.568-0.030 1.92-2.376 2.804-4.566 2.804-3.032 0-4.66-0.456-7.134-1.524l-1-0.456-1.064 6.436c1.786 0.792 5.070 1.492 8.48 1.528 7.978 0 13.17-3.844 13.234-9.794 0.026-3.264-2-5.764-6.384-7.808zM89.886 0.86h-5.882c-1.812 0-3.19 0.52-3.974 2.38l-11.294 27.126h7.98l2.196-5.872h8.926l1.14 5.896h7.038l-6.13-29.53zM81.126 18.566c0.154 0.016 3.060-9.586 3.060-9.586l2.318 9.586h-5.38zM28.876 0.768l-7.448 20.112-0.812-3.966c-1.378-4.576-5.694-9.548-10.514-12.018l6.82 25.442h8.044l11.954-29.566-8.044-0.004z"></path>
<path fill="#efc75e" style="fill: var(--color12, #efc75e)" d="M18.112 4.588c-0.58-2.258-2.43-3.78-4.944-3.812h-11.796l-0.122 0.548c9.2 2.268 16.924 9.248 19.43 15.814l-2.568-12.55z"></path>
</symbol>
</defs>
</svg>
